HIERARCHY
ROOT Hips
{
    OFFSET 0.000000 0.000000 0.000000
    CHANNELS 6 Xposition Yposition Zposition Zrotation Xrotation Yrotation
    JOINT Spine
    {
        OFFSET -0.000000 14.517291 0.000000
        CHANNELS 3 Zrotation Xrotation Yrotation
        JOINT Spine1
        {
            OFFSET -0.000000 37.558300 0.000000
            CHANNELS 3 Zrotation Xrotation Yrotation
            JOINT Neck
            {
                OFFSET -0.000000 37.404057 3.400369
                CHANNELS 3 Zrotation Xrotation Yrotation
                JOINT Head
                {
                    OFFSET -0.000000 24.785618 -3.540803
                    CHANNELS 3 Zrotation Xrotation Yrotation
                    End Site
                    {
                        OFFSET -0.000000 35.408028 0.000000
                    }
                }
            }
            JOINT LeftShoulder
            {
                OFFSET 6.992933 33.973492 -0.192664
                CHANNELS 3 Zrotation Xrotation Yrotation
                JOINT LeftArm
                {
                    OFFSET 21.527611 0.000000 0.000000
                    CHANNELS 3 Zrotation Xrotation Yrotation
                    JOINT LeftForeArm
                    {
                        OFFSET 56.353916 0.000000 0.000000
                        CHANNELS 3 Zrotation Xrotation Yrotation
                        JOINT LeftHand
                        {
                            OFFSET 47.774071 0.000000 0.000000
                            CHANNELS 3 Zrotation Xrotation Yrotation
                            End Site
                            {
                                OFFSET 26.556021 0.000000 0.000000
                            }
                        }
                    }
                }
            }
            JOINT RightShoulder
            {
                OFFSET -7.065357 33.973492 -0.192664
                CHANNELS 3 Zrotation Xrotation Yrotation
                JOINT RightArm
                {
                    OFFSET -21.527611 0.000000 0.000000
                    CHANNELS 3 Zrotation Xrotation Yrotation
                    JOINT RightForeArm
                    {
                        OFFSET -56.353916 0.000000 0.000000
                        CHANNELS 3 Zrotation Xrotation Yrotation
                        JOINT RightHand
                        {
                            OFFSET -47.774071 0.000000 0.000000
                            CHANNELS 3 Zrotation Xrotation Yrotation
                            End Site
                            {
                                OFFSET -26.556021 0.000000 0.000000
                            }
                        }
                    }
                }
            }
        }
    }
    JOINT LeftUpLeg
    {
        OFFSET 17.704014 0.000000 0.000000
        CHANNELS 3 Zrotation Xrotation Yrotation
        JOINT LeftLeg
        {
            OFFSET -0.000000 -81.181816 0.000000
            CHANNELS 3 Zrotation Xrotation Yrotation
            JOINT LeftFoot
            {
                OFFSET -0.000000 -62.821102 0.000000
                CHANNELS 3 Zrotation Xrotation Yrotation
                JOINT LeftToeBase
                {
                    OFFSET -0.000000 -11.507608 26.556021
                    CHANNELS 3 Zrotation Xrotation Yrotation
                    End Site
                    {
                        OFFSET -0.000000 0.000000 7.081605
                    }
                }
            }
        }
    }
    JOINT RightUpLeg
    {
        OFFSET -17.704014 0.000000 0.000000
        CHANNELS 3 Zrotation Xrotation Yrotation
        JOINT RightLeg
        {
            OFFSET -0.000000 -81.181816 0.000000
            CHANNELS 3 Zrotation Xrotation Yrotation
            JOINT RightFoot
            {
                OFFSET -0.000000 -62.821102 0.000000
                CHANNELS 3 Zrotation Xrotation Yrotation
                JOINT RightToeBase
                {
                    OFFSET -0.000000 -11.507608 26.556021
                    CHANNELS 3 Zrotation Xrotation Yrotation
                    End Site
                    {
                        OFFSET -0.000000 0.000000 7.081605
                    }
                }
            }
        }
    }
}
MOTION
Frames:    13
Frame Time:    0.008333
13.526238    149.189453    -107.399277    -0.452420    -5.913584    37.415070    0.020246    3.901342    -1.146602    -4.581491    2.469037    -0.281006    3.801635    2.992045    -16.813404    13.852954    2.654489    -16.377209    6.012418    8.272783    -20.284969    -25.676317    19.759020    -59.211243    -0.981879    -9.847602    -103.093536    7.222734    -11.832240    -12.390053    -8.235774    0.473373    -1.968882    23.949146    -22.529947    49.651077    -24.897562    -20.482136    63.458202    -1.061837    -5.535225    36.661713    20.874228    -4.291673    -2.713569    -14.179559    45.547604    -19.223213    4.246752    -35.613461    41.130966    0.000000    0.000000    0.000000    -19.843687    -22.650579    -13.888450    17.460922    38.489609    -14.695005    2.800696    -3.962084    -16.037195    0.000000    0.000000    0.000000    
13.838534    149.241287    -107.892136    -0.484278    -6.020118    37.444511    0.041340    3.878496    -1.128181    -4.540648    2.499936    -0.274227    3.807008    3.048370    -16.865353    13.879178    2.659209    -16.428022    6.023843    8.331875    -20.315281    -25.715132    19.792273    -59.265312    -0.847950    -9.842426    -103.067261    7.313595    -11.670860    -12.386478    -8.213621    0.508237    -2.023703    23.920424    -22.483496    49.607380    -24.886457    -20.507626    63.500690    -1.050487    -5.552228    36.624294    20.752905    -4.411784    -3.019603    -14.485707    45.721375    -19.110254    4.681786    -35.588299    41.493301    0.000000    0.000000    0.000000    -19.922440    -22.493950    -13.609762    17.559000    38.041348    -14.753094    2.982557    -3.505530    -16.233877    0.000000    0.000000    0.000000    
14.148712    149.290588    -108.356346    -0.510706    -6.141568    37.496552    0.091552    3.848663    -1.128333    -4.561579    2.578756    -0.270107    3.925174    3.076553    -16.890705    13.807952    2.614386    -16.470928    6.080705    8.328157    -20.331228    -25.778070    19.865332    -59.298164    -0.847445    -9.838374    -103.092430    7.192074    -11.658220    -12.457113    -8.138410    0.513625    -2.059148    23.861790    -22.456469    49.520874    -24.875818    -20.524311    63.576443    -1.094917    -5.567026    36.514370    20.648693    -4.508062    -3.354723    -14.819392    45.861446    -18.949553    5.113658    -35.547440    41.809399    0.000000    0.000000    0.000000    -19.930975    -22.314798    -13.595409    17.295637    37.681610    -14.665461    3.253205    -3.088465    -16.185841    0.000000    0.000000    0.000000    
14.439005    149.323853    -108.815552    -0.555780    -6.256314    37.536602    0.154332    3.827449    -1.116465    -4.555633    2.620976    -0.263913    3.904997    3.077553    -16.950191    13.870834    2.676600    -16.531162    6.101913    8.372159    -20.341496    -25.787630    19.928133    -59.363480    -0.776833    -9.828163    -103.108704    7.365087    -11.573370    -12.356383    -8.113102    0.562840    -2.147183    23.870447    -22.440599    49.521790    -24.832420    -20.538229    63.649414    -1.131889    -5.599193    36.436817    20.552839    -4.617948    -3.594726    -15.043786    46.028564    -18.888309    5.517992    -35.540432    42.112843    0.000000    0.000000    0.000000    -19.893717    -22.181025    -13.661909    16.894974    37.389416    -14.462185    3.539736    -2.701641    -16.114540    0.000000    0.000000    0.000000    
14.715962    149.360947    -109.245872    -0.636310    -6.360640    37.612106    0.202590    3.759781    -1.132733    -4.499024    2.684549    -0.267617    3.950292    3.045429    -16.988180    13.827710    2.732491    -16.589441    6.114376    8.379129    -20.359104    -25.839697    20.016096    -59.384380    -0.795742    -9.804161    -103.134872    7.249102    -11.564792    -12.415647    -8.092159    0.538869    -2.163554    23.788834    -22.346642    49.371517    -24.904453    -20.609522    63.680653    -1.120535    -5.614359    36.468128    20.507502    -4.761116    -3.921149    -15.372589    46.163376    -18.743254    5.946136    -35.503403    42.410465    0.000000    0.000000    0.000000    -19.913639    -22.019815    -13.380994    16.982252    36.943604    -14.499811    3.738904    -2.337465    -16.364708    0.000000    0.000000    0.000000    
14.992529    149.398499    -109.665237    -0.682220    -6.491388    37.648556    0.251269    3.753661    -1.116959    -4.447210    2.705539    -0.262227    3.913513    3.070588    -17.021181    13.890505    2.771164    -16.616205    6.111784    8.426762    -20.393496    -25.886335    20.060848    -59.407074    -0.817725    -9.713372    -103.171341    7.396400    -11.509819    -12.287399    -8.055487    0.568714    -2.214456    23.716694    -22.270842    49.309666    -24.972795    -20.654409    63.670101    -1.056569    -5.599362    36.474197    20.438946    -4.816236    -4.128938    -15.543053    46.271748    -18.698751    6.284142    -35.504230    42.618664    0.000000    0.000000    0.000000    -19.887255    -21.846796    -13.227876    16.840082    36.561050    -14.439907    3.995321    -1.966713    -16.452417    0.000000    0.000000    0.000000    
15.258135    149.427216    -110.074959    -0.732350    -6.604764    37.681568    0.352807    3.733477    -1.088992    -4.518538    2.758261    -0.248038    4.021926    3.024375    -17.072264    13.848025    2.812166    -16.694605    6.201179    8.443500    -20.404982    -25.937277    20.122267    -59.453503    -0.906001    -9.656784    -103.236603    7.359767    -11.558732    -12.267925    -7.977570    0.558390    -2.274260    23.660036    -22.205502    49.212242    -24.997099    -20.732712    63.727955    -1.027734    -5.639507    36.513565    20.360420    -4.897619    -4.249668    -15.616432    46.441940    -18.931372    6.727944    -35.483250    43.030796    0.000000    0.000000    0.000000    -19.881031    -21.721592    -13.051391    16.750399    36.238224    -14.403783    4.285312    -1.609539    -16.593569    0.000000    0.000000    0.000000    
15.520861    149.451660    -110.470474    -0.772070    -6.710402    37.693684    0.424243    3.713552    -1.045459    -4.511950    2.798440    -0.231286    3.997300    3.036871    -17.136709    13.900375    2.817082    -16.753454    6.197847    8.463245    -20.433542    -25.916769    20.216797    -59.467373    -0.864817    -9.657796    -103.277588    7.393644    -11.509081    -12.205269    -7.976761    0.585831    -2.338263    23.633070    -22.147377    49.158272    -25.067122    -20.775383    63.749977    -1.070648    -5.644525    36.388096    20.287024    -4.933008    -4.338190    -15.710764    46.531750    -18.937281    7.045574    -35.485065    43.181389    0.000000    0.000000    0.000000    -19.864801    -21.590061    -12.815594    16.671150    35.887928    -14.391811    4.545164    -1.298830    -16.736477    0.000000    0.000000    0.000000    
15.761958    149.465057    -110.858894    -0.806834    -6.806150    37.714600    0.444355    3.705746    -0.996505    -4.456692    2.836229    -0.214747    4.025717    3.040266    -17.178829    13.896923    2.791268    -16.798313    6.206582    8.480708    -20.465322    -25.979027    20.262810    -59.483688    -0.929378    -9.550094    -103.318047    7.359801    -11.479207    -12.202941    -7.992014    0.553855    -2.411003    23.645927    -22.086046    49.070049    -25.041267    -20.817190    63.823078    -1.030442    -5.670402    36.427532    20.207460    -4.992085    -4.405255    -15.785889    46.653347    -18.942722    7.338978    -35.496964    43.320496    0.000000    0.000000    0.000000    -19.888288    -21.487755    -12.614379    16.661716    35.592888    -14.383580    4.798607    -1.004030    -16.931570    0.000000    0.000000    0.000000    
16.017563    149.497482    -111.219559    -0.813684    -6.914658    37.732250    0.527111    3.714196    -0.958116    -4.519078    2.866139    -0.198107    4.006366    3.076943    -17.234091    14.013385    2.787588    -16.838991    6.231679    8.493743    -20.468361    -26.007704    20.310236    -59.489769    -0.961010    -9.423560    -103.353302    7.532229    -11.413059    -12.225638    -7.923283    0.612390    -2.464970    23.553343    -22.013487    48.997887    -25.134544    -20.939224    63.828045    -0.979533    -5.720426    36.440651    20.092915    -5.011999    -4.363325    -15.683584    46.799503    -19.071699    7.539934    -35.499241    43.382774    0.000000    0.000000    0.000000    -19.903028    -21.345842    -12.469218    16.570587    35.309208    -14.314056    5.055818    -0.703481    -17.079975    0.000000    0.000000    0.000000    
16.250095    149.512512    -111.582458    -0.833314    -6.986774    37.730312    0.565969    3.698619    -0.902770    -4.519034    2.888211    -0.178383    4.028428    3.077744    -17.278023    14.018011    2.790403    -16.887632    6.218866    8.519103    -20.487749    -26.058369    20.311293    -59.463631    -1.093624    -9.270755    -103.416603    7.559812    -11.434091    -12.283258    -7.919886    0.591251    -2.487994    23.538342    -21.970488    48.892166    -25.128420    -20.941235    63.884506    -1.055361    -5.732544    36.328037    19.983799    -5.086263    -4.325120    -15.646549    46.975819    -19.130882    7.726356    -35.507851    43.434708    0.000000    0.000000    0.000000    -19.967821    -21.269737    -12.264711    16.630087    35.048798    -14.357113    5.288644    -0.418930    -17.265705    0.000000    0.000000    0.000000    
16.461796    149.522720    -111.920990    -0.848149    -7.046243    37.740074    0.564359    3.677562    -0.858542    -4.457020    2.931722    -0.163647    3.992951    3.058414    -17.335852    14.023999    2.785082    -16.943377    6.180628    8.529837    -20.508261    -26.074566    20.329674    -59.449329    -1.004472    -9.154547    -103.432076    7.625644    -11.209923    -12.200914    -7.975543    0.616613    -2.568146    23.558939    -21.889078    48.866566    -25.178967    -21.056726    63.892181    -0.974129    -5.793769    36.399788    19.879417    -5.172388    -4.349907    -15.678465    47.233318    -19.086580    7.860312    -35.567150    43.437660    0.000000    0.000000    0.000000    -20.028566    -21.202660    -12.152481    16.623018    34.822708    -14.441793    5.497617    -0.153739    -17.327509    0.000000    0.000000    0.000000    
16.662769    149.520660    -112.263657    -0.859280    -7.093574    37.757835    0.638754    3.664101    -0.827237    -4.556211    2.947146    -0.149218    3.994457    3.140626    -17.369139    14.163014    2.690181    -16.948032    6.221641    8.557136    -20.508915    -26.064930    20.376867    -59.447395    -1.075513    -9.124759    -103.480492    7.672980    -11.276508    -12.227652    -7.899163    0.622650    -2.564669    23.530441    -21.913807    48.771519    -25.124710    -21.053770    63.989250    -0.941489    -5.784736    36.320751    19.772709    -5.285902    -4.389320    -15.764358    47.416046    -19.014532    8.048429    -35.558105    43.500546    0.000000    0.000000    0.000000    -20.104580    -21.142826    -12.107541    16.582792    34.621292    -14.524434    5.689564    0.094587    -17.317898    0.000000    0.000000    0.000000    
